# xmcd
#
# Track frame offsets:
#	150
#	12528
#	24183
#	36508
#	48693
#	60370
#	72250
#	84585
#	97148
#	107040
#	118613
#	129460
#	140350
#	152188
#	165175
#	178363
#	191535
#	203928
#	216263
#	229423
#	241088
#	253303
#	264330
#	276238
#	289985
#	300593
#	310260
#	324730
#	339032
#
# Disc length: 4750 seconds
#
# Revision: 0
# Processed by: cddbd v1.5.1PL0 Copyright (c) Steve Scherf et al.
# Submitted via: audiograbber 1.83.01
#
DISCID=b0128c1d
DTITLE=Classic Country - Hank Williams +4
DYEAR=1900
DGENRE=Country
TTITLE0=Hank Williams  - Move It On Over
TTITLE1=Hank Williams  - Mansion on the Hill
TTITLE2=Hank Williams  - Lovesick Blues
TTITLE3=Hank Williams  - Lost Highway
TTITLE4=Hank Williams  - Dear John
TTITLE5=Hank Williams  - Long Gone Lonesome Blues
TTITLE6=Hank Williams  - I Saw The Light
TTITLE7=Hank Williams  - I'm So Lonesome I Could Cry
TTITLE8=Hank Williams  - Honky Tonk Blues
TTITLE9=Hank Williams  - My Son Calls Another Man Daddy
TTITLE10=Hank Williams  - I Can't Help It (If I'm Still in Love with You)
TTITLE11=Hank Williams  - Why Don't You Love Me
TTITLE12=Hank Williams  - You Win Again
TTITLE13=Hank Williams  - Jambalaya (On the Bayou)
TTITLE14=Hank Williams  - Mind Your Own Business
TTITLE15=Hank Williams  - Hey, Good Lookin'
TTITLE16=Hank Williams  - Honky Tonkin'
TTITLE17=Hank Williams  - Cold, Cold Heart
TTITLE18=Hank Williams  - Wedding Bells
TTITLE19=Hank Williams  - Kaw-Liga
TTITLE20=Hank Williams  - Your Cheatin' Heart
TTITLE21=Hank Williams  - I'll Never Get Out of this World Alive
TTITLE22=Hank Williams  - Take These Chains from My Heart
TTITLE23=Hank Williams  - Ramblin' Man
TTITLE24=Hank Williams  - The Log Train
TTITLE25=Johny Rodriguez - Riding My Thumb To Mexico
TTITLE26=Bellamy Brothers - If I Said You Had A Beautiful Body
TTITLE27=Glen Campbell - Rhinestone Cowboy
TTITLE28=C. W. McCall - Convoy
EXTD=
EXTT0=
EXTT1=
EXTT2=
EXTT3=
EXTT4=
EXTT5=
EXTT6=
EXTT7=
EXTT8=
EXTT9=
EXTT10=
EXTT11=
EXTT12=
EXTT13=
EXTT14=
EXTT15=
EXTT16=
EXTT17=
EXTT18=
EXTT19=
EXTT20=
EXTT21=
EXTT22=
EXTT23=
EXTT24=
EXTT25=
EXTT26=
EXTT27=
EXTT28=
PLAYORDER=
